<mxfile host="app.diagrams.net" agent="Mozilla/5.0 (Windows NT 10.0; Win64; x64) AppleWebKit/537.36 (KHTML, like Gecko) Chrome/136.0.0.0 Safari/537.36 Edg/136.0.0.0" version="27.0.5">
  <diagram name="Página-1" id="I6BQIS-pY6sgQR-hqz7N">
    <mxGraphModel dx="1988" dy="1412" grid="0" gridSize="10" guides="1" tooltips="1" connect="1" arrows="1" fold="1" page="0" pageScale="1" pageWidth="827" pageHeight="1169" math="0" shadow="0">
      <root>
        <mxCell id="0" />
        <mxCell id="1" parent="0" />
        <mxCell id="2" value="DOMINIO" style="whiteSpace=wrap;strokeWidth=2;verticalAlign=top;fontSize=20;" parent="1" vertex="1">
          <mxGeometry x="1020" y="30" width="880" height="538" as="geometry" />
        </mxCell>
        <mxCell id="3" value="APLICACIÓN" style="whiteSpace=wrap;strokeWidth=2;verticalAlign=top;fontSize=20;" parent="1" vertex="1">
          <mxGeometry x="716" y="8" width="217" height="394" as="geometry" />
        </mxCell>
        <mxCell id="4" value="ADAPTADORES" style="whiteSpace=wrap;strokeWidth=2;verticalAlign=top;fontSize=20;" parent="1" vertex="1">
          <mxGeometry x="346" y="8" width="265" height="706" as="geometry" />
        </mxCell>
        <mxCell id="5" value="EXTERNO" style="whiteSpace=wrap;strokeWidth=2;fontSize=20;verticalAlign=top;" parent="1" vertex="1">
          <mxGeometry x="8" y="734" width="925" height="245" as="geometry" />
        </mxCell>
        <mxCell id="6" value="Frontend Angular" style="rounded=1;arcSize=20;strokeWidth=2" parent="1" vertex="1">
          <mxGeometry x="33" y="830" width="153" height="54" as="geometry" />
        </mxCell>
        <mxCell id="7" value="PostgreSQL" style="shape=cylinder3;boundedLbl=1;backgroundOutline=1;size=10;strokeWidth=2;whiteSpace=wrap;" parent="1" vertex="1">
          <mxGeometry x="777" y="769" width="94" height="71" as="geometry" />
        </mxCell>
        <mxCell id="8" value="Spring Security" style="whiteSpace=wrap;strokeWidth=2;" parent="1" vertex="1">
          <mxGeometry x="741" y="890" width="167" height="54" as="geometry" />
        </mxCell>
        <mxCell id="9" value="ProductController" style="whiteSpace=wrap;strokeWidth=2;" parent="1" vertex="1">
          <mxGeometry x="382" y="70" width="187" height="54" as="geometry" />
        </mxCell>
        <mxCell id="10" value="AuthController" style="whiteSpace=wrap;strokeWidth=2;" parent="1" vertex="1">
          <mxGeometry x="395" y="209" width="166" height="54" as="geometry" />
        </mxCell>
        <mxCell id="11" value="UserController" style="whiteSpace=wrap;strokeWidth=2;" parent="1" vertex="1">
          <mxGeometry x="396" y="313" width="164" height="54" as="geometry" />
        </mxCell>
        <mxCell id="12" value="JpaProductRepository" style="whiteSpace=wrap;strokeWidth=2;" parent="1" vertex="1">
          <mxGeometry x="371" y="417" width="215" height="54" as="geometry" />
        </mxCell>
        <mxCell id="13" value="JpaUserRepository" style="whiteSpace=wrap;strokeWidth=2;" parent="1" vertex="1">
          <mxGeometry x="382" y="521" width="192" height="54" as="geometry" />
        </mxCell>
        <mxCell id="14" value="JwtTokenProvider" style="whiteSpace=wrap;strokeWidth=2;" parent="1" vertex="1">
          <mxGeometry x="385" y="625" width="187" height="54" as="geometry" />
        </mxCell>
        <mxCell id="15" value="ProductService" style="whiteSpace=wrap;strokeWidth=2;" parent="1" vertex="1">
          <mxGeometry x="735" y="68" width="167" height="54" as="geometry" />
        </mxCell>
        <mxCell id="16" value="AuthService" style="whiteSpace=wrap;strokeWidth=2;" parent="1" vertex="1">
          <mxGeometry x="752" y="209" width="145" height="54" as="geometry" />
        </mxCell>
        <mxCell id="17" value="UserService" style="whiteSpace=wrap;strokeWidth=2;" parent="1" vertex="1">
          <mxGeometry x="753" y="313" width="143" height="54" as="geometry" />
        </mxCell>
        <mxCell id="18" value="Producto" style="whiteSpace=wrap;strokeWidth=2;" parent="1" vertex="1">
          <mxGeometry x="1494" y="157" width="123" height="54" as="geometry" />
        </mxCell>
        <mxCell id="19" value="Usuario" style="whiteSpace=wrap;strokeWidth=2;" parent="1" vertex="1">
          <mxGeometry x="1056" y="209" width="113" height="54" as="geometry" />
        </mxCell>
        <mxCell id="20" value="Pedido" style="whiteSpace=wrap;strokeWidth=2;" parent="1" vertex="1">
          <mxGeometry x="1267" y="209" width="108" height="54" as="geometry" />
        </mxCell>
        <mxCell id="21" value="Categoría" style="whiteSpace=wrap;strokeWidth=2;" parent="1" vertex="1">
          <mxGeometry x="1757" y="157" width="129" height="54" as="geometry" />
        </mxCell>
        <mxCell id="22" value="Carrito" style="whiteSpace=wrap;strokeWidth=2;" parent="1" vertex="1">
          <mxGeometry x="1266" y="105" width="110" height="54" as="geometry" />
        </mxCell>
        <mxCell id="23" value="HTTP Requests" style="curved=1;startArrow=none;endArrow=block;exitX=1;exitY=0.3;entryX=0.48;entryY=1;" parent="1" source="6" target="9" edge="1">
          <mxGeometry x="-0.8846" relative="1" as="geometry">
            <Array as="points">
              <mxPoint x="266" y="835" />
              <mxPoint x="329" y="793" />
              <mxPoint x="222" y="315" />
              <mxPoint x="205" y="150" />
            </Array>
            <mxPoint x="1" as="offset" />
          </mxGeometry>
        </mxCell>
        <mxCell id="24" value="Login/Registro" style="curved=1;startArrow=none;endArrow=block;exitX=1;exitY=0.68;entryX=0.47;entryY=1;" parent="1" source="6" target="10" edge="1">
          <mxGeometry x="-0.892" y="-1" relative="1" as="geometry">
            <Array as="points">
              <mxPoint x="266" y="878" />
              <mxPoint x="370" y="831" />
              <mxPoint x="284" y="383" />
              <mxPoint x="299" y="261" />
            </Array>
            <mxPoint as="offset" />
          </mxGeometry>
        </mxCell>
        <mxCell id="25" value="Usa" style="curved=1;startArrow=none;endArrow=block;exitX=1;exitY=0.5;entryX=0;entryY=0.5;" parent="1" source="9" target="15" edge="1">
          <mxGeometry relative="1" as="geometry">
            <Array as="points" />
          </mxGeometry>
        </mxCell>
        <mxCell id="26" value="Usa" style="curved=1;startArrow=none;endArrow=block;exitX=1;exitY=0.5;entryX=0;entryY=0.5;" parent="1" source="10" target="16" edge="1">
          <mxGeometry relative="1" as="geometry">
            <Array as="points" />
          </mxGeometry>
        </mxCell>
        <mxCell id="27" value="Opera" style="curved=1;startArrow=none;endArrow=block;exitX=1;exitY=0.5;entryX=0.27;entryY=0;" parent="1" source="15" target="18" edge="1">
          <mxGeometry relative="1" as="geometry">
            <Array as="points">
              <mxPoint x="1435" y="70" />
            </Array>
          </mxGeometry>
        </mxCell>
        <mxCell id="28" value="Valida" style="curved=1;startArrow=none;endArrow=block;exitX=1;exitY=0.5;entryX=0;entryY=0.5;" parent="1" source="16" target="19" edge="1">
          <mxGeometry relative="1" as="geometry">
            <Array as="points" />
          </mxGeometry>
        </mxCell>
        <mxCell id="29" value="Persiste" style="curved=1;startArrow=none;endArrow=block;exitX=1;exitY=0.5;entryX=0.4;entryY=1;" parent="1" source="12" target="18" edge="1">
          <mxGeometry x="-0.3905" y="6" relative="1" as="geometry">
            <Array as="points">
              <mxPoint x="1435" y="444" />
            </Array>
            <mxPoint as="offset" />
          </mxGeometry>
        </mxCell>
        <mxCell id="30" value="Persiste" style="curved=1;startArrow=none;endArrow=block;exitX=1;exitY=0.5;entryX=0.44;entryY=1;" parent="1" source="13" target="19" edge="1">
          <mxGeometry x="-0.0714" y="61" relative="1" as="geometry">
            <Array as="points">
              <mxPoint x="1031" y="548" />
            </Array>
            <mxPoint as="offset" />
          </mxGeometry>
        </mxCell>
        <mxCell id="31" value="Genera" style="curved=1;startArrow=none;endArrow=block;exitX=1;exitY=0.5;entryX=0;entryY=0.5;" parent="1" source="14" target="8" edge="1">
          <mxGeometry relative="1" as="geometry">
            <Array as="points">
              <mxPoint x="610" y="652" />
              <mxPoint x="663" y="917" />
            </Array>
          </mxGeometry>
        </mxCell>
        <mxCell id="32" value="Pertenece a" style="curved=1;startArrow=none;endArrow=block;exitX=1.01;exitY=0.5;entryX=0;entryY=0.5;" parent="1" source="18" target="21" edge="1">
          <mxGeometry relative="1" as="geometry">
            <Array as="points" />
          </mxGeometry>
        </mxCell>
        <mxCell id="33" value="Contiene" style="curved=1;startArrow=none;endArrow=block;exitX=1;exitY=0.5;entryX=0;entryY=0.99;" parent="1" source="20" target="18" edge="1">
          <mxGeometry relative="1" as="geometry">
            <Array as="points">
              <mxPoint x="1435" y="236" />
            </Array>
          </mxGeometry>
        </mxCell>
        <mxCell id="34" value="Crea" style="curved=1;startArrow=none;endArrow=block;exitX=1;exitY=0.5;entryX=0;entryY=0.5;" parent="1" source="19" target="20" edge="1">
          <mxGeometry relative="1" as="geometry">
            <Array as="points" />
          </mxGeometry>
        </mxCell>
        <mxCell id="35" value="Tiene" style="curved=1;startArrow=none;endArrow=block;exitX=1;exitY=0.5;entryX=0;entryY=0.01;" parent="1" source="22" target="18" edge="1">
          <mxGeometry relative="1" as="geometry">
            <Array as="points">
              <mxPoint x="1435" y="132" />
            </Array>
          </mxGeometry>
        </mxCell>
        <mxCell id="VE8f0ziMvLaAbLz4Fi_3-36" value="Usa" style="curved=1;startArrow=none;endArrow=block;" edge="1" parent="1" source="11" target="17">
          <mxGeometry relative="1" as="geometry">
            <Array as="points" />
            <mxPoint x="571" y="246" as="sourcePoint" />
            <mxPoint x="762" y="246" as="targetPoint" />
          </mxGeometry>
        </mxCell>
      </root>
    </mxGraphModel>
  </diagram>
</mxfile>
